<svg id="svg" version="1.1" xmlns="http://www.w3.org/2000/svg" xmlns:xlink="http://www.w3.org/1999/xlink" width="400" height="400" viewBox="0, 0, 400,400"><g id="svgg"><path id="path0" d="M186.600 0.426 C 168.702 1.771,145.456 6.659,132.769 11.745 C 131.321 12.325,129.999 12.800,129.829 12.800 C 129.660 12.800,128.954 13.061,128.260 13.381 C 127.567 13.700,124.930 14.795,122.400 15.815 C 117.283 17.876,105.026 23.990,100.402 26.787 C 98.753 27.784,97.043 28.818,96.602 29.084 C 96.161 29.351,95.530 29.694,95.200 29.847 C 94.672 30.092,89.931 33.289,83.800 37.534 C 74.349 44.077,58.941 57.898,51.395 66.600 C 49.679 68.580,48.165 70.290,48.031 70.400 C 47.731 70.648,44.597 74.440,43.219 76.223 C 38.113 82.830,31.931 91.587,30.247 94.600 C 29.878 95.260,29.266 96.284,28.888 96.875 C 23.967 104.567,17.806 117.069,13.749 127.600 C 13.198 129.030,12.494 130.830,12.185 131.600 C -1.415 165.512,-3.582 211.758,6.619 250.400 C 7.403 253.370,8.217 256.481,8.427 257.313 C 8.874 259.078,13.009 270.813,13.836 272.660 C 14.146 273.354,14.400 274.039,14.400 274.182 C 14.400 274.326,14.740 275.199,15.155 276.122 C 15.570 277.045,16.320 278.790,16.822 280.000 C 33.192 319.506,69.413 357.956,109.111 377.969 C 114.334 380.602,120.674 383.600,121.019 383.600 C 121.108 383.600,122.309 384.115,123.690 384.745 C 125.841 385.727,127.644 386.438,128.400 386.605 C 128.510 386.629,129.230 386.924,130.000 387.261 C 140.714 391.950,164.930 397.588,179.600 398.810 C 182.350 399.038,186.254 399.400,188.277 399.613 C 193.073 400.118,206.618 400.109,211.982 399.598 C 231.415 397.744,237.101 396.862,249.142 393.830 C 254.900 392.380,267.202 388.503,270.200 387.194 C 271.080 386.809,272.430 386.266,273.200 385.987 C 280.415 383.373,296.096 375.688,301.072 372.329 C 301.992 371.708,302.865 371.200,303.013 371.200 C 303.616 371.200,316.135 362.694,320.410 359.380 C 338.195 345.593,352.000 331.291,363.733 314.500 C 364.540 313.345,365.798 311.545,366.529 310.500 C 397.671 265.984,408.153 200.935,392.829 147.300 C 392.373 145.705,391.662 143.185,391.249 141.700 C 390.019 137.277,386.411 127.329,384.612 123.400 C 384.310 122.740,383.697 121.271,383.251 120.135 C 381.794 116.428,375.215 103.616,372.578 99.349 C 371.160 97.055,370.000 95.099,370.000 95.001 C 370.000 94.707,361.840 82.655,360.365 80.771 C 359.614 79.811,358.047 77.850,356.883 76.413 C 355.718 74.976,354.638 73.614,354.483 73.387 C 352.179 70.017,339.018 56.257,333.594 51.546 C 331.721 49.920,329.818 48.231,329.365 47.794 C 326.062 44.610,307.554 31.099,304.800 29.861 C 304.470 29.713,303.716 29.278,303.125 28.896 C 292.227 21.845,272.967 13.157,258.915 8.954 C 249.471 6.129,249.977 6.261,241.400 4.373 C 225.375 0.845,202.725 -0.786,186.600 0.426 M215.015 9.802 C 230.790 11.122,254.089 15.961,262.200 19.601 C 262.640 19.798,263.810 20.222,264.800 20.543 C 266.870 21.213,272.403 23.364,274.260 24.219 C 274.954 24.539,275.634 24.800,275.773 24.800 C 276.346 24.800,292.104 32.813,295.800 34.984 C 301.100 38.098,311.865 45.235,314.508 47.388 C 315.219 47.967,316.790 49.215,318.000 50.161 C 320.416 52.050,320.595 52.199,325.800 56.636 C 332.891 62.680,345.005 75.497,349.774 82.000 C 350.823 83.430,351.799 84.690,351.943 84.800 C 353.471 85.967,363.498 101.326,367.218 108.198 C 383.322 137.946,390.628 166.713,390.584 200.200 C 390.561 217.378,388.152 237.193,384.797 247.800 C 384.588 248.460,383.943 250.710,383.363 252.800 C 380.323 263.759,372.847 282.125,368.193 290.065 C 367.427 291.373,366.800 292.518,366.800 292.609 C 366.800 294.177,351.755 316.332,347.850 320.516 C 347.277 321.130,345.845 322.840,344.667 324.316 C 342.067 327.574,330.461 339.357,326.625 342.631 C 325.099 343.934,322.977 345.767,321.908 346.703 C 320.840 347.640,318.578 349.439,316.883 350.701 C 315.187 351.963,313.710 353.087,313.600 353.199 C 313.490 353.311,312.590 353.941,311.600 354.600 C 310.610 355.259,309.706 355.922,309.591 356.075 C 309.176 356.626,298.799 363.308,295.400 365.212 C 288.181 369.257,283.833 371.515,280.387 373.009 C 278.524 373.817,276.100 374.892,275.000 375.398 C 270.343 377.538,269.041 378.024,258.800 381.445 C 250.989 384.054,247.519 384.975,238.000 386.964 C 211.223 392.559,176.760 391.765,153.000 385.005 C 151.900 384.692,149.290 383.967,147.200 383.393 C 145.110 382.819,143.040 382.193,142.600 382.002 C 142.160 381.811,140.180 381.110,138.200 380.445 C 132.229 378.438,125.812 375.922,123.400 374.642 C 122.740 374.291,122.078 374.004,121.930 374.002 C 120.640 373.991,104.260 365.227,98.029 361.215 C 91.033 356.710,90.400 356.271,90.400 355.929 C 90.400 355.748,90.208 355.600,89.973 355.600 C 89.619 355.600,87.099 353.909,86.400 353.202 C 86.290 353.091,85.570 352.561,84.800 352.024 C 77.336 346.817,62.226 332.510,54.993 323.800 C 53.897 322.480,52.796 321.220,52.546 321.000 C 51.837 320.375,44.866 311.127,43.200 308.602 C 42.472 307.499,40.020 303.741,37.649 300.093 C 36.686 298.612,35.311 296.320,34.593 295.000 C 33.875 293.680,32.377 290.925,31.265 288.879 C 6.786 243.846,2.488 186.206,19.941 137.000 C 22.909 128.631,24.412 125.045,28.825 115.800 C 32.829 107.411,42.792 91.162,46.973 86.200 C 47.900 85.100,48.769 83.930,48.904 83.600 C 49.560 81.991,59.054 71.303,65.603 64.800 C 71.665 58.782,75.653 55.283,84.400 48.313 C 89.002 44.646,100.672 36.981,107.470 33.160 C 109.803 31.849,121.468 26.000,121.750 26.000 C 121.886 26.000,123.123 25.483,124.499 24.852 C 128.260 23.126,136.233 20.000,136.875 20.000 C 137.186 20.000,137.611 19.854,137.820 19.676 C 138.029 19.498,139.910 18.845,142.000 18.225 C 144.090 17.605,146.160 16.949,146.600 16.768 C 149.377 15.622,164.966 12.314,173.800 10.996 C 185.643 9.229,202.382 8.744,215.015 9.802 M188.800 16.021 C 184.426 16.286,174.903 17.307,172.600 17.758 C 172.160 17.845,170.360 18.120,168.600 18.371 C 166.840 18.622,164.320 19.085,163.000 19.401 C 161.680 19.716,158.890 20.355,156.800 20.820 C 147.135 22.971,135.548 26.967,123.004 32.475 C 120.706 33.484,112.635 37.691,108.634 39.965 C 102.136 43.659,96.002 47.636,91.533 51.054 C 89.846 52.344,88.069 53.670,87.584 54.000 C 87.099 54.330,86.499 54.785,86.251 55.011 C 86.003 55.237,84.180 56.765,82.200 58.406 C 66.475 71.439,47.490 93.798,40.770 107.200 C 40.274 108.190,39.646 109.270,39.375 109.600 C 38.755 110.354,33.769 120.125,32.231 123.600 C 31.598 125.030,30.666 127.100,30.159 128.200 C 24.821 139.791,18.774 162.016,17.207 175.800 C 16.140 185.183,16.003 187.010,15.760 195.000 C 14.138 248.389,38.239 303.596,77.984 337.535 C 79.185 338.561,80.915 340.075,81.829 340.900 C 82.742 341.725,83.684 342.400,83.922 342.400 C 84.160 342.400,84.590 342.721,84.877 343.113 C 86.060 344.725,97.827 353.135,103.800 356.637 C 105.560 357.668,107.695 358.953,108.544 359.491 C 131.995 374.353,166.524 383.400,199.800 383.400 C 218.970 383.400,227.419 382.359,246.800 377.609 C 250.045 376.814,258.890 374.059,261.000 373.187 C 261.440 373.005,262.520 372.637,263.400 372.370 C 265.273 371.802,272.898 368.554,277.200 366.492 C 278.850 365.701,280.290 365.033,280.400 365.008 C 281.065 364.856,290.879 359.602,291.600 359.012 C 291.930 358.742,292.515 358.410,292.900 358.274 C 293.977 357.891,302.892 351.950,309.974 346.895 C 319.430 340.144,332.737 327.240,343.272 314.606 C 368.567 284.268,383.593 241.537,383.599 199.919 C 383.601 182.419,381.848 169.231,377.043 150.600 C 375.898 146.159,371.757 134.001,370.232 130.600 C 364.308 117.390,364.734 118.266,360.314 110.200 C 356.006 102.339,351.590 95.715,344.417 86.350 C 322.234 57.391,282.960 30.834,250.482 22.831 C 249.667 22.630,247.200 21.999,245.000 21.430 C 227.008 16.771,207.477 14.891,188.800 16.021 M208.800 19.995 C 215.385 20.322,228.241 21.678,230.096 22.241 C 230.480 22.357,232.640 22.785,234.896 23.193 C 253.115 26.486,279.294 36.720,293.346 46.044 C 294.636 46.900,295.760 47.600,295.843 47.600 C 297.038 47.600,313.944 60.403,319.784 65.730 C 331.606 76.515,346.648 94.115,351.072 102.341 C 351.385 102.923,352.037 104.039,352.521 104.820 C 390.745 166.551,388.196 247.667,346.258 304.172 C 345.126 305.697,343.930 307.349,343.600 307.843 C 338.838 314.972,324.575 329.922,315.000 337.819 C 308.111 343.501,297.986 350.860,294.346 352.831 C 293.768 353.144,291.879 354.259,290.148 355.310 C 285.612 358.061,274.921 363.396,269.800 365.463 C 267.380 366.440,264.860 367.479,264.200 367.773 C 243.737 376.881,208.350 381.613,181.600 378.818 C 169.662 377.570,150.570 373.694,146.878 371.767 C 146.285 371.458,145.530 371.203,145.200 371.201 C 144.132 371.195,135.335 367.955,128.400 365.014 C 124.613 363.407,115.781 359.062,113.000 357.436 C 111.680 356.665,110.060 355.760,109.400 355.425 C 108.084 354.757,107.651 354.491,104.402 352.346 C 103.191 351.547,100.670 349.891,98.800 348.666 C 83.557 338.683,62.106 318.050,54.471 306.028 C 54.112 305.463,53.718 304.910,53.596 304.800 C 47.559 299.383,32.898 269.784,27.442 252.000 C 14.107 208.536,18.914 154.178,39.292 118.000 C 39.973 116.790,41.152 114.630,41.911 113.200 C 45.453 106.531,54.415 92.728,56.665 90.478 C 56.966 90.177,57.699 89.271,58.295 88.465 C 59.273 87.141,65.448 79.692,65.980 79.195 C 66.101 79.082,67.730 77.387,69.600 75.428 C 76.620 68.075,87.486 58.600,94.400 53.803 C 102.331 48.300,104.019 47.189,108.201 44.721 C 112.301 42.301,124.977 35.832,128.600 34.310 C 137.827 30.435,151.497 25.914,158.641 24.376 C 176.858 20.454,191.799 19.148,208.800 19.995 M205.600 34.430 C 198.079 34.901,186.814 36.826,180.090 38.788 C 178.610 39.220,176.230 39.917,174.800 40.338 C 156.584 45.701,138.007 56.805,124.179 70.595 C 91.322 103.363,81.686 154.261,100.666 194.800 C 101.232 196.010,101.924 197.630,102.203 198.400 C 102.482 199.170,103.451 201.386,104.355 203.324 C 105.260 205.262,106.000 206.926,106.000 207.022 C 106.000 207.118,106.650 208.592,107.445 210.298 C 108.240 212.004,109.034 213.850,109.209 214.400 C 109.384 214.950,110.007 216.660,110.592 218.200 C 112.245 222.547,114.666 231.704,115.562 237.000 C 117.040 245.734,117.321 249.280,117.562 262.200 L 117.800 275.000 123.000 277.673 L 128.200 280.345 128.261 282.712 C 128.361 286.601,130.670 290.226,133.811 291.426 C 135.946 292.241,135.928 291.941,134.048 295.400 L 132.526 298.200 130.163 298.495 C 118.941 299.899,114.291 301.551,114.067 304.217 C 113.742 308.083,114.364 310.748,115.731 311.357 C 122.192 314.233,127.136 317.004,132.132 320.546 C 141.811 327.410,152.933 337.983,164.389 351.211 C 170.821 358.639,177.055 362.425,186.800 364.823 C 195.103 366.865,214.039 365.632,215.807 362.934 C 216.238 362.276,216.799 362.000,217.709 361.998 C 223.058 361.992,243.341 357.190,249.060 354.576 C 249.754 354.259,250.437 354.000,250.579 354.000 C 250.721 354.000,252.919 353.167,255.462 352.150 L 260.086 350.299 262.343 350.934 C 269.984 353.080,274.709 352.526,278.310 349.060 C 280.698 346.762,281.004 345.355,280.412 339.400 C 277.818 313.291,269.379 304.000,248.259 304.000 C 245.341 304.000,245.222 303.959,241.743 301.768 C 235.978 298.135,230.955 296.019,224.251 294.398 C 222.520 293.979,221.035 293.568,220.952 293.485 C 220.754 293.287,223.454 287.059,226.451 280.800 C 230.724 271.878,232.124 271.075,242.448 271.620 C 267.527 272.944,271.803 270.825,269.400 258.265 C 268.231 252.156,268.785 249.976,272.436 246.325 C 274.841 243.921,274.868 242.219,272.544 239.560 C 272.051 238.996,272.179 238.785,273.622 237.785 C 276.430 235.839,276.911 234.631,275.820 232.260 C 272.318 224.654,272.811 223.017,279.100 221.384 C 289.062 218.797,290.017 214.805,283.109 204.633 C 279.495 199.313,274.946 190.211,272.634 183.676 C 271.021 179.115,270.796 179.383,276.700 178.828 C 295.051 177.103,313.213 172.993,316.799 169.754 C 321.826 165.211,317.907 159.159,309.134 157.919 L 306.034 157.480 303.455 154.240 C 300.200 150.151,296.881 146.964,291.800 143.050 C 289.600 141.355,286.521 138.981,284.958 137.775 L 282.116 135.581 281.872 127.890 C 281.049 102.030,270.901 85.532,250.200 76.399 C 244.824 74.028,245.042 74.276,246.426 72.094 C 247.072 71.076,247.600 70.033,247.600 69.776 C 247.600 69.146,243.479 67.336,240.205 66.528 C 237.816 65.938,237.567 65.784,237.761 65.012 C 238.229 63.149,239.228 61.321,240.696 59.643 L 242.233 57.886 245.616 58.974 C 247.477 59.572,250.039 60.524,251.308 61.089 C 252.578 61.654,253.673 62.045,253.741 61.958 C 253.810 61.871,255.399 59.100,257.273 55.800 C 263.759 44.377,263.493 45.104,261.500 44.261 C 260.785 43.959,259.390 43.338,258.400 42.881 C 243.778 36.137,225.379 33.192,205.600 34.430 M226.400 37.635 C 233.443 38.286,246.768 41.127,250.600 42.794 C 251.040 42.986,252.660 43.615,254.200 44.192 C 256.608 45.095,258.633 45.944,259.143 46.263 C 259.489 46.480,252.659 58.400,252.190 58.400 C 251.902 58.400,250.886 58.067,249.933 57.659 C 247.673 56.693,242.825 55.030,239.800 54.184 C 235.715 53.040,233.042 52.354,232.000 52.182 C 231.450 52.091,229.200 51.646,227.000 51.194 C 216.601 49.056,198.895 49.670,185.200 52.644 C 143.334 61.735,113.379 92.139,106.226 132.800 C 102.814 152.192,106.093 174.778,115.487 196.600 C 116.531 199.024,118.945 205.188,122.224 213.800 C 130.100 234.488,134.527 269.838,130.113 276.809 L 129.400 277.935 125.000 275.637 L 120.600 273.338 120.357 260.369 C 119.858 233.788,116.631 221.135,103.378 193.797 C 84.157 154.149,96.220 97.301,130.005 68.317 C 131.212 67.281,132.920 65.787,133.800 64.997 C 135.300 63.650,142.570 58.282,144.088 57.400 C 144.467 57.180,146.807 55.813,149.288 54.362 C 161.510 47.216,174.790 42.361,189.600 39.622 C 197.131 38.229,198.355 38.058,204.000 37.602 C 213.257 36.855,218.034 36.862,226.400 37.635 M218.200 53.195 C 224.847 53.717,238.280 56.146,239.110 56.976 C 239.203 57.069,238.642 57.979,237.863 58.999 C 237.085 60.018,236.062 62.011,235.591 63.426 L 234.735 66.000 233.051 66.000 C 227.969 66.000,217.435 71.273,214.691 75.191 C 213.367 77.082,213.348 73.622,214.668 71.068 C 215.495 69.468,218.221 66.576,219.849 65.570 C 224.420 62.744,214.554 59.797,209.400 62.449 C 207.678 63.335,207.029 63.452,204.733 63.294 C 201.750 63.089,199.425 63.946,197.283 66.041 C 196.661 66.649,195.622 67.279,194.976 67.440 C 191.827 68.225,189.277 69.917,188.250 71.903 C 187.395 73.556,186.837 73.822,183.000 74.400 C 176.276 75.413,171.780 76.536,163.400 79.293 C 159.602 80.543,158.171 81.143,153.000 83.654 C 148.672 85.755,143.490 88.862,142.400 90.008 C 142.290 90.124,141.660 90.560,141.000 90.977 C 134.094 95.341,125.561 105.635,120.575 115.618 C 110.148 136.495,111.315 154.665,125.904 198.600 C 127.000 201.900,128.556 206.760,129.361 209.400 C 130.166 212.040,131.167 215.280,131.584 216.600 C 132.695 220.114,134.806 227.834,135.412 230.600 C 138.228 243.441,139.098 249.073,139.477 256.900 L 139.724 262.000 141.062 262.000 C 142.725 262.000,142.783 262.610,141.358 265.146 C 140.456 266.752,134.964 272.000,134.185 272.000 C 134.034 272.000,134.036 269.345,134.190 266.100 C 134.916 250.809,132.080 231.489,127.216 218.600 C 126.245 216.027,124.591 211.700,123.315 208.400 C 122.762 206.970,121.356 203.550,120.191 200.800 C 115.502 189.739,113.514 184.251,111.355 176.400 C 92.785 108.894,146.006 47.525,218.200 53.195 M215.600 64.606 C 215.600 64.719,214.770 65.830,213.756 67.075 C 207.946 74.208,208.921 77.883,219.545 88.895 C 222.392 91.846,225.939 96.112,228.641 99.836 C 229.375 100.847,229.567 100.925,230.140 100.450 C 231.244 99.534,228.130 94.440,223.264 89.200 C 220.801 86.548,220.839 86.216,223.944 83.232 C 226.658 80.623,229.605 78.996,232.818 78.332 C 235.185 77.843,235.200 77.831,235.210 76.420 C 235.215 75.639,235.401 74.211,235.624 73.247 C 235.846 72.283,235.930 71.396,235.810 71.276 C 235.453 70.919,233.189 73.303,232.939 74.299 C 232.678 75.340,231.679 76.000,230.366 76.000 C 228.543 76.000,224.985 78.220,221.892 81.287 L 218.778 84.373 216.989 81.943 C 214.776 78.937,214.722 79.347,217.700 76.628 C 224.798 70.148,231.646 67.986,239.174 69.850 C 243.458 70.910,243.398 70.819,241.717 73.687 C 239.905 76.779,239.872 76.414,242.341 80.502 C 244.134 83.471,244.871 84.938,246.812 89.400 C 247.371 90.686,248.800 96.179,248.800 97.042 C 248.800 98.044,246.232 100.801,245.301 100.797 C 244.550 100.795,243.200 98.776,243.200 97.657 C 243.200 96.454,242.097 95.345,237.979 92.405 C 233.373 89.116,233.477 89.106,233.266 92.842 C 233.024 97.117,234.023 99.289,238.857 105.000 C 241.311 107.899,242.791 110.871,242.796 112.910 C 242.799 114.161,242.976 114.487,243.826 114.810 C 245.496 115.445,245.701 115.314,248.000 112.151 C 252.397 106.103,253.552 106.276,261.184 114.128 C 267.367 120.489,268.333 123.578,264.143 123.594 C 262.247 123.601,262.000 123.250,262.000 120.555 L 262.000 118.776 258.300 116.393 C 253.880 113.546,253.939 113.553,252.676 115.700 C 252.126 116.635,251.299 117.833,250.838 118.361 C 250.377 118.890,250.000 119.462,250.000 119.633 C 250.000 119.803,249.768 120.181,249.485 120.471 C 249.202 120.762,248.552 121.684,248.040 122.519 L 247.111 124.039 248.655 125.526 C 249.505 126.345,251.449 128.451,252.976 130.207 C 259.772 138.022,263.204 141.120,268.132 143.887 C 271.517 145.788,271.779 146.609,269.129 147.004 L 267.258 147.282 266.421 145.641 C 265.826 144.475,265.326 143.995,264.692 143.984 C 263.779 143.967,260.897 142.775,258.400 141.382 C 257.630 140.952,255.812 139.406,254.360 137.948 C 252.832 136.413,250.219 134.406,248.160 133.186 C 246.202 132.026,243.360 130.299,241.845 129.349 L 239.091 127.621 237.958 128.574 C 236.706 129.628,233.962 130.611,231.200 130.996 C 229.479 131.235,223.996 132.215,222.100 132.622 C 221.230 132.809,221.200 132.717,221.200 129.823 C 221.200 125.743,220.076 122.812,217.581 120.382 C 204.324 107.469,185.592 115.105,181.273 135.183 C 180.447 139.023,180.541 138.997,177.054 136.381 C 175.484 135.204,174.137 134.199,174.060 134.148 C 173.014 133.446,174.669 130.788,176.728 129.862 C 181.017 127.934,184.000 123.805,184.000 119.796 C 184.000 113.884,179.855 112.389,174.908 116.518 C 174.327 117.003,172.580 118.483,171.026 119.806 C 167.261 123.011,166.537 123.439,163.576 124.206 C 158.785 125.448,152.918 123.049,150.230 118.750 L 149.573 117.699 153.137 117.529 C 157.760 117.308,160.941 115.849,163.600 112.732 C 171.038 104.011,176.656 103.778,183.299 111.914 L 184.372 113.228 185.400 111.600 C 187.805 107.790,190.367 105.696,193.200 105.224 C 194.458 105.014,194.668 104.788,195.268 102.995 C 196.294 99.931,196.200 99.345,194.500 98.211 C 190.858 95.782,190.066 92.274,192.276 88.357 L 193.507 86.177 192.564 84.389 C 188.772 77.190,189.524 72.507,194.725 70.940 C 196.011 70.552,197.609 69.697,198.400 68.971 C 200.831 66.743,202.192 66.269,205.448 66.515 C 207.961 66.705,208.427 66.633,209.036 65.961 C 210.048 64.842,215.600 63.696,215.600 64.606 M187.200 78.124 L 187.200 79.847 181.700 80.954 C 175.641 82.174,168.182 84.251,165.000 85.604 C 160.186 87.651,158.678 88.359,156.733 89.486 C 155.486 90.209,154.363 90.800,154.239 90.800 C 153.899 90.800,149.952 93.230,148.756 94.175 C 148.181 94.629,147.300 95.270,146.797 95.600 C 135.609 102.939,124.484 121.184,122.367 135.660 C 120.305 149.765,122.964 163.380,135.013 200.400 C 136.409 204.690,138.046 209.883,138.650 211.941 C 139.254 213.999,139.966 215.765,140.231 215.867 C 141.637 216.407,150.741 212.364,156.901 208.465 C 158.869 207.219,160.783 206.020,161.155 205.800 C 163.773 204.251,176.491 193.903,186.200 185.421 C 190.362 181.786,190.216 181.873,191.225 182.413 C 192.085 182.873,192.069 182.913,190.350 184.577 C 189.388 185.509,188.150 187.054,187.600 188.010 C 186.381 190.127,184.978 191.514,179.800 195.721 C 177.600 197.509,175.440 199.307,175.000 199.718 C 174.560 200.130,172.040 202.071,169.400 204.033 C 166.760 205.995,164.420 207.742,164.200 207.916 C 163.454 208.503,156.774 212.800,156.607 212.800 C 156.516 212.800,154.809 213.687,152.813 214.771 C 150.818 215.856,148.513 216.959,147.693 217.224 C 146.872 217.489,146.020 217.816,145.800 217.953 C 145.580 218.089,144.410 218.480,143.200 218.821 C 141.670 219.253,141.043 219.619,141.143 220.021 C 141.221 220.340,141.812 222.730,142.456 225.332 C 144.709 234.446,145.852 241.804,146.270 249.902 L 146.524 254.804 154.962 254.554 C 166.967 254.199,175.519 254.868,189.154 257.229 C 192.642 257.833,192.509 258.315,192.144 246.400 C 191.521 226.083,191.731 221.436,193.503 216.300 C 194.336 213.884,194.788 213.914,196.564 216.500 C 197.357 217.655,198.267 218.960,198.586 219.400 C 199.101 220.112,199.051 220.576,198.131 223.600 C 196.427 229.201,196.442 237.319,198.190 255.757 C 198.292 256.833,198.265 258.771,198.130 260.063 L 197.885 262.412 195.842 262.171 C 194.719 262.038,192.000 261.671,189.800 261.356 C 180.231 259.985,167.505 259.204,154.700 259.202 L 142.000 259.200 141.998 256.900 C 141.994 251.226,139.745 236.834,137.420 227.600 C 135.554 220.187,132.071 208.751,127.371 194.600 C 116.250 161.113,113.835 142.737,118.591 127.800 C 118.872 126.920,119.328 125.340,119.605 124.290 C 119.883 123.239,120.265 122.283,120.455 122.166 C 120.645 122.049,120.800 121.688,120.800 121.365 C 120.800 121.042,121.683 118.938,122.762 116.689 C 132.274 96.859,151.581 83.439,178.374 78.033 C 180.478 77.609,183.010 77.089,184.000 76.879 C 187.185 76.202,187.200 76.207,187.200 78.124 M251.511 80.061 C 269.785 89.445,278.780 106.067,278.796 130.477 L 278.800 137.155 281.380 139.077 C 282.799 140.135,284.981 141.720,286.229 142.600 C 294.096 148.150,303.600 157.587,303.600 159.849 C 303.600 159.973,303.960 160.531,304.400 161.091 C 306.209 163.390,306.625 163.191,294.124 166.020 C 283.112 168.513,258.161 169.561,246.600 168.016 C 245.280 167.840,241.950 167.406,239.200 167.051 C 236.450 166.697,232.490 166.044,230.400 165.599 C 228.310 165.155,225.160 164.516,223.400 164.179 C 216.794 162.914,213.502 161.825,213.096 160.771 C 211.944 157.777,213.538 150.641,217.026 143.174 C 218.442 140.144,219.600 137.472,219.600 137.238 C 219.600 136.427,222.365 135.662,229.219 134.574 C 233.839 133.841,236.688 133.183,237.898 132.570 L 239.700 131.658 244.709 134.641 C 248.111 136.667,250.801 138.649,253.094 140.820 C 255.727 143.313,257.303 144.422,260.251 145.856 C 263.473 147.423,264.149 147.925,264.824 149.248 C 265.260 150.101,265.691 150.800,265.782 150.800 C 265.873 150.800,267.174 150.548,268.674 150.239 C 270.173 149.930,272.570 149.548,274.000 149.389 C 275.430 149.231,277.045 148.933,277.588 148.727 L 278.577 148.353 276.988 146.866 C 275.192 145.185,271.371 142.400,270.861 142.400 C 270.676 142.400,270.198 142.040,269.800 141.600 C 269.402 141.160,268.910 140.800,268.708 140.800 C 267.482 140.800,259.921 133.626,253.653 126.514 L 251.109 123.629 253.021 120.914 C 254.073 119.421,254.982 118.136,255.042 118.058 C 255.102 117.979,255.949 118.488,256.924 119.188 C 258.773 120.516,259.185 121.734,259.197 125.900 C 259.201 127.454,258.905 127.429,265.722 126.436 C 271.918 125.532,271.547 125.889,270.216 122.111 C 268.639 117.633,268.020 116.747,262.642 111.262 C 255.119 103.589,252.564 103.020,247.533 107.895 L 245.666 109.704 244.608 107.616 C 244.026 106.468,242.876 104.779,242.052 103.864 C 237.006 98.260,235.262 94.737,238.536 96.760 C 239.540 97.381,239.985 97.996,240.179 99.030 C 240.817 102.430,245.027 105.054,246.948 103.249 C 247.445 102.782,248.027 102.400,248.242 102.400 C 248.866 102.400,251.596 99.663,251.980 98.653 C 252.778 96.553,250.505 89.068,246.945 82.077 C 245.545 79.328,244.400 77.030,244.400 76.972 C 244.400 76.705,248.131 78.326,251.511 80.061 M189.141 84.468 L 189.906 86.135 188.992 87.853 C 186.843 91.895,187.630 96.127,191.115 99.276 C 192.994 100.973,192.859 101.649,190.430 102.710 C 189.365 103.175,187.417 104.552,186.102 105.770 L 183.710 107.984 182.960 107.156 C 177.621 101.256,170.243 101.963,162.773 109.088 C 158.564 113.103,157.651 113.665,154.200 114.369 C 151.834 114.851,151.487 114.827,145.471 113.758 L 143.942 113.486 144.592 115.043 C 149.637 127.124,162.780 131.615,170.953 124.051 C 174.878 120.418,179.793 116.860,180.251 117.318 C 182.613 119.680,178.828 126.025,174.027 127.751 C 171.654 128.605,171.412 129.014,170.999 132.870 L 170.717 135.500 172.518 136.850 C 173.509 137.593,174.821 138.560,175.435 139.000 C 180.133 142.369,180.223 142.484,180.933 146.026 C 181.693 149.813,181.683 149.846,179.961 149.246 C 174.841 147.461,169.974 151.182,169.856 156.972 C 169.768 161.279,173.371 168.436,174.250 165.700 C 177.043 157.009,182.065 158.084,184.018 167.791 C 184.830 171.825,186.329 176.143,187.673 178.318 L 188.536 179.714 186.764 181.357 C 185.790 182.261,184.095 183.739,182.997 184.643 C 181.898 185.546,178.810 188.111,176.133 190.343 C 170.349 195.164,171.066 195.018,170.022 191.583 C 169.117 188.603,167.238 186.054,165.150 184.974 C 163.697 184.223,162.243 184.214,162.529 184.958 C 163.962 188.694,163.844 189.503,161.961 188.846 C 159.684 188.052,157.954 188.325,154.642 190.002 C 150.375 192.161,148.821 192.017,148.165 189.402 C 147.343 186.127,150.837 184.459,154.900 186.188 C 155.423 186.410,155.599 186.297,155.598 185.743 C 155.589 182.911,153.067 179.206,151.140 179.195 C 149.080 179.183,148.499 178.782,148.246 177.196 C 147.772 174.235,144.417 171.628,141.053 171.609 C 139.354 171.599,139.372 171.489,140.556 174.600 C 141.483 177.036,141.346 180.579,140.176 184.430 C 138.237 190.812,138.432 196.951,140.658 199.596 C 142.604 201.909,144.589 202.350,150.669 201.821 C 157.909 201.191,158.076 205.990,150.908 208.685 C 150.519 208.832,149.383 209.430,148.385 210.015 C 147.387 210.600,145.537 211.465,144.275 211.938 L 141.979 212.797 141.589 211.772 C 141.375 211.209,141.200 210.614,141.200 210.451 C 141.200 210.288,139.237 204.224,136.838 196.977 C 129.045 173.435,127.591 168.408,126.023 159.600 C 119.032 120.325,141.603 90.657,184.000 83.396 C 188.414 82.640,188.292 82.614,189.141 84.468 M207.113 117.404 C 219.704 120.373,221.445 129.872,212.430 146.421 C 211.594 147.955,210.321 153.711,210.111 156.900 C 209.816 161.406,208.018 162.065,207.393 157.897 C 207.125 156.106,205.441 153.180,204.106 152.188 C 203.652 151.850,203.803 151.360,204.951 149.453 C 210.391 140.420,209.485 129.455,203.097 127.016 C 192.971 123.149,185.812 138.912,192.273 150.852 L 193.275 152.704 192.189 154.345 C 189.169 158.909,191.278 164.775,196.666 166.790 C 197.881 167.245,199.461 168.063,200.176 168.609 C 200.891 169.154,201.601 169.600,201.754 169.600 C 201.907 169.600,202.610 170.004,203.316 170.499 C 204.022 170.993,204.663 171.431,204.741 171.473 C 204.941 171.580,202.530 176.474,201.912 177.215 C 199.869 179.667,195.088 180.790,192.467 179.434 C 189.763 178.036,188.698 175.630,186.435 165.800 C 184.541 157.577,179.339 154.747,174.513 159.314 C 173.142 160.611,173.069 160.566,172.660 158.175 C 171.623 152.116,176.214 150.174,183.203 153.716 C 187.728 156.008,187.554 156.179,185.630 151.323 C 178.419 133.134,190.816 113.562,207.113 117.404 M203.320 130.246 C 206.727 132.779,206.279 141.987,202.424 148.654 C 201.251 150.683,201.213 150.708,199.318 150.687 C 198.263 150.675,197.003 150.795,196.519 150.954 C 193.911 151.807,191.679 140.188,193.438 134.914 C 195.015 130.186,200.044 127.810,203.320 130.246 M270.515 134.750 C 263.971 136.461,263.335 136.800,266.671 136.800 C 267.994 136.800,271.004 136.918,273.361 137.062 L 277.646 137.324 277.423 136.262 C 277.300 135.678,277.107 134.750,276.992 134.200 C 276.878 133.650,276.653 133.214,276.492 133.232 C 276.332 133.250,273.642 133.933,270.515 134.750 M201.015 153.781 C 206.464 156.057,205.506 163.781,199.713 164.280 C 193.331 164.829,191.148 156.366,197.000 153.765 C 198.560 153.071,199.325 153.074,201.015 153.781 M312.888 161.859 C 316.631 163.748,316.483 167.263,312.600 168.721 C 308.992 170.075,293.357 173.598,287.400 174.398 C 271.745 176.503,271.364 176.529,256.600 176.565 C 242.864 176.598,235.494 176.215,229.600 175.162 C 228.390 174.945,225.948 174.510,224.174 174.195 C 217.355 172.983,208.669 170.071,204.109 167.468 L 202.817 166.731 204.803 164.797 L 206.788 162.863 213.094 164.462 C 227.243 168.049,241.366 170.450,254.000 171.417 C 273.309 172.895,288.444 171.450,303.200 166.722 C 309.255 164.781,309.599 164.526,308.704 162.649 C 308.345 161.897,308.142 161.192,308.251 161.082 C 308.585 160.748,311.731 161.276,312.888 161.859 M210.616 173.635 C 213.670 174.621,213.679 174.665,211.496 177.960 C 209.890 180.383,208.405 182.695,207.630 183.977 C 207.347 184.447,207.003 184.310,205.792 183.246 C 204.972 182.527,203.874 181.743,203.351 181.505 C 202.129 180.948,202.150 180.787,203.638 179.375 C 204.319 178.729,205.491 176.985,206.243 175.500 C 206.995 174.015,207.705 172.800,207.821 172.800 C 207.938 172.800,209.195 173.176,210.616 173.635 M144.963 176.445 C 145.367 177.130,145.811 178.615,145.949 179.745 L 146.201 181.800 148.456 181.666 C 151.070 181.510,151.900 182.169,149.815 182.745 C 149.042 182.958,148.177 183.373,147.892 183.666 C 141.758 189.982,147.398 197.084,155.200 192.869 C 158.547 191.062,159.673 190.945,162.006 192.165 C 164.617 193.530,164.654 193.520,165.477 191.200 C 166.537 188.217,167.453 189.458,167.840 194.400 L 168.044 197.000 166.522 198.029 C 165.685 198.595,163.665 200.034,162.033 201.227 C 159.984 202.725,159.010 203.230,158.886 202.859 C 157.877 199.831,154.523 198.449,149.828 199.127 C 141.622 200.314,139.690 195.839,143.262 183.922 C 143.842 181.987,144.028 180.404,143.932 178.221 C 143.785 174.852,143.902 174.649,144.963 176.445 M219.203 176.008 C 220.634 176.426,226.429 177.478,229.539 177.885 C 232.054 178.214,231.103 181.540,226.531 188.400 C 222.552 194.370,222.945 199.118,227.581 201.091 C 228.809 201.613,228.881 201.723,228.233 202.085 C 227.003 202.774,224.488 202.150,220.710 200.219 C 216.412 198.022,216.687 197.878,217.164 202.077 C 217.717 206.946,218.487 208.214,222.554 210.959 C 223.618 211.677,221.163 213.202,218.953 213.196 C 211.231 213.177,206.369 202.830,208.455 190.854 C 209.024 187.584,209.497 186.542,213.158 180.490 C 216.331 175.245,216.404 175.191,219.203 176.008 M242.000 179.205 C 245.410 179.460,248.380 179.632,248.600 179.587 C 248.820 179.542,253.435 179.527,258.857 179.553 L 268.713 179.600 268.980 180.700 C 270.374 186.455,276.485 199.643,280.569 205.708 C 286.890 215.097,286.343 217.395,277.400 219.018 C 271.038 220.172,268.991 224.610,271.843 231.060 C 273.071 233.835,273.060 233.952,271.425 235.862 L 270.050 237.468 264.204 237.526 C 260.989 237.558,258.053 237.756,257.679 237.967 C 256.584 238.586,259.531 239.600,262.426 239.600 C 269.117 239.600,272.338 242.163,269.440 245.183 C 265.942 248.829,265.078 252.537,266.367 258.381 C 268.277 267.047,264.507 270.289,253.587 269.371 C 244.426 268.602,235.015 268.348,233.312 268.825 C 228.929 270.052,225.522 275.096,220.630 287.600 C 219.382 290.790,217.759 294.840,217.022 296.600 C 214.871 301.744,214.708 302.288,214.708 304.325 C 214.708 306.413,215.416 308.147,216.768 309.371 C 218.068 310.548,218.709 309.659,217.857 307.863 C 216.770 305.573,216.953 304.774,218.500 305.061 C 220.429 305.420,227.303 308.003,228.031 308.644 C 228.379 308.950,228.839 309.200,229.054 309.200 C 229.269 309.200,230.003 309.605,230.685 310.100 C 231.367 310.595,232.329 311.270,232.822 311.600 C 234.446 312.687,239.600 317.284,239.600 317.646 C 239.600 317.841,235.865 318.010,231.300 318.022 C 219.423 318.055,212.335 318.779,202.200 320.996 C 194.241 322.737,194.981 322.799,191.985 320.130 C 190.547 318.848,188.589 317.170,187.634 316.400 C 186.679 315.630,184.886 314.177,183.649 313.171 C 181.215 311.192,174.973 306.731,174.000 306.276 C 173.670 306.121,172.320 305.286,171.000 304.421 C 167.498 302.124,164.725 300.534,160.018 298.123 C 155.301 295.708,155.215 295.622,155.206 293.354 C 155.196 290.740,157.579 288.373,158.280 290.300 C 159.308 293.126,163.811 296.707,168.057 298.074 C 171.272 299.109,171.399 299.040,170.879 296.528 C 170.471 294.551,170.641 292.146,171.214 291.791 C 171.391 291.682,172.544 292.649,173.776 293.941 C 177.042 297.365,182.339 299.600,187.188 299.600 C 189.207 299.600,189.313 299.363,188.130 297.490 C 187.567 296.597,187.014 295.179,186.901 294.338 L 186.696 292.808 188.848 294.811 C 191.269 297.063,193.881 298.211,197.528 298.624 C 201.177 299.036,201.377 298.849,199.984 296.321 C 198.123 292.946,198.561 291.496,200.818 293.558 C 205.085 297.455,209.693 298.050,213.016 295.132 C 214.142 294.144,217.200 289.662,217.200 289.001 C 217.200 288.916,216.310 288.866,215.223 288.890 C 209.599 289.018,209.014 282.768,214.275 278.768 C 221.172 273.523,223.035 269.766,221.448 264.305 C 220.596 261.375,220.582 261.443,222.211 260.566 C 225.459 258.817,227.288 255.277,227.117 251.072 L 227.000 248.200 226.000 249.213 C 222.440 252.820,219.304 252.307,218.895 248.051 C 218.673 245.739,218.708 245.669,221.800 242.214 C 227.856 235.448,229.663 229.501,227.664 222.920 C 226.867 220.296,223.989 215.600,223.178 215.600 C 222.398 215.600,222.841 214.799,223.932 214.235 C 226.202 213.061,229.462 208.009,227.560 208.613 C 225.873 209.148,223.239 208.412,221.841 207.015 C 220.222 205.395,219.371 202.256,220.890 203.505 C 225.474 207.275,232.649 204.505,234.435 198.276 C 234.809 196.975,234.906 196.975,231.494 198.273 C 229.759 198.933,229.491 198.943,228.494 198.384 C 225.575 196.748,225.892 194.289,229.772 188.469 C 231.645 185.658,232.976 183.139,233.579 181.264 C 234.296 179.036,234.654 178.421,235.153 178.561 C 235.509 178.661,238.590 178.951,242.000 179.205 M262.381 183.007 C 259.102 183.807,249.604 185.344,245.800 185.691 L 244.600 185.800 245.691 186.540 C 247.857 188.009,262.103 193.200,263.969 193.200 C 264.960 193.200,265.034 192.691,264.168 191.825 C 262.934 190.591,264.221 184.069,265.777 183.666 C 266.449 183.492,267.057 183.046,267.129 182.675 C 267.289 181.842,267.104 181.855,262.381 183.007 M202.278 184.156 C 204.901 185.556,206.110 187.187,205.840 188.962 C 204.712 196.388,205.212 202.829,207.248 207.098 C 208.405 209.525,212.454 214.400,213.312 214.400 C 213.546 214.400,214.045 214.679,214.421 215.019 C 214.797 215.360,216.244 215.765,217.636 215.919 C 223.238 216.541,227.232 225.469,224.929 232.225 C 223.869 235.338,223.116 236.505,219.299 240.950 C 213.940 247.190,215.548 254.845,222.100 254.281 C 223.160 254.190,224.000 254.287,224.000 254.501 C 224.000 255.493,221.448 257.967,219.608 258.758 C 217.306 259.749,217.332 259.638,218.420 263.836 C 219.837 269.304,219.110 271.221,214.088 275.257 C 207.065 280.902,205.807 287.651,211.206 290.723 C 212.663 291.553,212.678 291.781,211.351 293.010 C 208.501 295.652,204.189 294.090,200.515 289.085 C 198.514 286.358,196.400 288.838,196.400 293.915 C 196.400 296.814,192.609 295.250,188.851 290.800 C 187.643 289.370,186.444 288.147,186.185 288.082 C 185.303 287.860,183.920 291.907,184.066 294.279 L 184.200 296.452 182.961 296.220 C 179.791 295.624,175.744 292.622,173.348 289.089 C 172.205 287.404,171.637 286.818,171.134 286.806 C 170.556 286.793,168.359 290.954,167.958 292.820 C 167.472 295.087,167.500 295.074,165.457 293.979 C 163.494 292.927,162.331 291.593,160.737 288.561 L 159.454 286.122 157.857 286.528 C 155.396 287.152,152.400 290.226,152.400 292.126 C 152.400 294.108,152.753 294.171,145.600 290.906 C 140.039 288.369,140.018 288.363,138.397 288.848 C 136.175 289.514,134.273 289.017,132.852 287.399 C 129.660 283.763,130.826 279.068,136.122 274.226 C 143.004 267.934,143.960 266.735,145.359 262.644 C 145.735 261.546,172.708 261.930,182.800 263.177 C 193.765 264.533,195.709 264.798,197.952 265.247 C 199.680 265.593,200.172 265.572,200.446 265.139 C 201.056 264.177,200.830 254.442,199.950 243.800 C 199.021 232.575,199.159 228.538,200.629 223.874 L 201.325 221.667 203.018 221.667 C 205.605 221.667,208.556 219.649,209.952 216.926 C 210.541 215.778,210.537 215.759,209.556 214.845 C 208.687 214.035,207.600 214.108,207.600 214.976 C 207.600 217.662,202.421 219.788,200.859 217.744 C 200.378 217.115,198.558 214.769,196.814 212.530 C 190.621 204.584,188.712 200.997,188.156 196.263 C 187.236 188.438,196.087 180.850,202.278 184.156 M261.197 185.900 C 261.195 186.285,261.082 187.526,260.946 188.659 L 260.698 190.718 258.045 189.815 C 256.586 189.319,254.512 188.466,253.436 187.919 L 251.479 186.924 255.640 186.112 C 261.005 185.064,261.201 185.056,261.197 185.900 M198.922 188.587 C 195.024 190.282,192.536 194.311,192.901 198.336 C 193.237 202.044,197.929 210.400,199.675 210.400 C 200.203 210.400,200.046 209.115,199.435 208.431 C 196.157 204.769,193.904 194.000,196.416 194.000 C 196.627 194.000,196.800 193.752,196.800 193.449 C 196.800 192.852,200.690 190.000,201.503 190.000 C 202.108 190.000,202.123 189.777,201.586 188.774 C 201.100 187.866,200.652 187.835,198.922 188.587 M185.360 196.500 C 185.946 200.298,188.033 205.125,190.884 209.275 L 192.368 211.435 191.151 215.218 C 189.339 220.847,188.656 226.884,188.960 234.600 C 189.098 238.120,189.325 243.898,189.465 247.440 C 189.763 255.018,190.004 254.648,185.304 253.838 C 175.461 252.141,171.839 251.848,160.483 251.824 C 149.493 251.801,149.162 251.777,149.016 251.000 C 148.933 250.560,148.655 247.680,148.399 244.600 C 147.946 239.160,146.885 232.775,145.209 225.400 C 144.248 221.172,144.279 221.030,146.272 220.391 C 151.042 218.862,163.603 211.952,168.200 208.327 C 168.420 208.154,170.400 206.689,172.600 205.072 C 176.007 202.568,180.793 198.520,183.800 195.599 C 184.927 194.505,185.065 194.585,185.360 196.500 M263.172 215.300 C 260.112 220.173,265.324 225.323,269.196 221.252 C 270.006 220.401,271.146 219.391,271.731 219.009 C 272.315 218.626,272.694 218.152,272.573 217.956 C 272.151 217.273,270.732 217.608,269.000 218.800 C 265.753 221.034,264.160 220.096,264.488 216.143 C 264.692 213.683,264.332 213.452,263.172 215.300 M143.791 294.068 C 148.074 295.504,153.326 297.669,157.000 299.513 C 158.980 300.507,161.410 301.722,162.400 302.214 C 170.511 306.246,194.000 323.955,194.000 326.039 C 194.000 326.238,194.225 326.414,194.500 326.431 C 195.026 326.464,201.315 333.271,202.884 335.506 C 207.783 342.487,208.914 344.222,209.932 346.325 C 211.641 349.851,212.728 353.756,213.038 357.484 L 213.311 360.757 212.156 360.988 C 211.520 361.115,210.190 361.393,209.200 361.606 C 198.931 363.817,183.681 361.999,178.446 357.940 C 177.921 357.533,177.261 357.200,176.979 357.200 C 176.697 357.200,176.407 357.055,176.333 356.877 C 176.260 356.699,175.180 355.882,173.934 355.061 C 171.245 353.288,162.423 345.294,160.320 342.723 C 154.204 335.246,139.516 322.006,131.468 316.715 C 129.890 315.677,128.409 314.687,128.176 314.515 C 126.965 313.615,118.196 309.200,117.621 309.200 C 117.077 309.200,116.711 307.621,116.871 305.955 C 117.086 303.704,121.491 302.143,128.800 301.729 C 134.137 301.427,133.960 301.542,136.455 296.771 L 138.562 292.741 139.981 293.004 C 140.761 293.148,142.476 293.627,143.791 294.068 M227.774 298.069 C 233.259 299.929,237.500 301.954,241.910 304.821 L 244.955 306.800 250.099 306.800 C 267.860 306.800,275.521 315.656,277.784 338.800 C 278.507 346.192,277.729 347.754,272.806 348.799 C 266.015 350.240,259.092 347.519,257.541 342.800 C 256.237 338.833,251.490 329.723,247.639 323.802 C 241.740 314.729,230.940 305.894,223.400 303.971 C 216.883 302.309,216.948 302.395,218.858 297.955 L 219.733 295.919 221.341 296.176 C 222.225 296.317,225.120 297.169,227.774 298.069 M242.888 321.762 C 243.752 322.157,250.400 332.723,250.400 333.702 C 250.400 333.799,247.655 333.994,244.300 334.134 C 233.018 334.606,224.738 336.029,213.267 339.469 C 211.435 340.019,209.890 340.408,209.835 340.334 C 209.780 340.260,208.467 338.490,206.917 336.400 C 205.368 334.310,202.552 330.895,200.660 328.810 C 198.411 326.333,197.390 324.931,197.710 324.762 C 198.574 324.306,209.242 322.404,214.200 321.821 C 219.352 321.216,241.594 321.170,242.888 321.762 M252.288 337.674 C 252.524 337.963,253.193 339.370,253.776 340.800 C 254.359 342.230,255.000 343.760,255.200 344.200 C 255.400 344.640,255.834 345.676,256.163 346.503 L 256.761 348.005 255.481 348.548 C 254.776 348.846,253.080 349.565,251.711 350.146 C 242.354 354.112,223.609 358.838,216.622 358.992 C 216.414 358.996,216.021 357.470,215.750 355.600 C 215.441 353.471,214.644 350.704,213.618 348.200 C 212.718 346.000,211.940 344.036,211.890 343.836 C 211.549 342.460,230.635 338.202,239.400 337.699 C 249.502 337.118,251.831 337.114,252.288 337.674 " stroke="none" fill="#1e1a18" fill-rule="evenodd"></path></g></svg>